name C:\Users\Nicos\Desktop\Gil_twoSteps\Study2\ExperimentalData\IK_Splined\twoSteps_IK_BSplines_25_meshInts_study2_p02_s_01_lowIK_modROI.mot
datacolumns 38
datarows 11
range 0.65936000 0.69694409
endheader
                time	         pelvis_tilt	         pelvis_list	     pelvis_rotation	           pelvis_tx	           pelvis_ty	           pelvis_tz	       hip_flexion_r	     hip_adduction_r	      hip_rotation_r	        knee_angle_r	       ankle_angle_r	    subtalar_angle_r	         mtp_angle_r	       hip_flexion_l	     hip_adduction_l	      hip_rotation_l	        knee_angle_l	       ankle_angle_l	    subtalar_angle_l	         mtp_angle_l	    lumbar_extension	      lumbar_bending	     lumbar_rotation	          arm_flex_r	           arm_add_r	           arm_rot_r	        elbow_flex_r	           pro_sup_r	        wrist_flex_r	         wrist_dev_r	          arm_flex_l	           arm_add_l	           arm_rot_l	        elbow_flex_l	           pro_sup_l	        wrist_flex_l	         wrist_dev_l	
          0.65936000	        -17.18345489	          1.60501670	         12.25463992	          0.33084809	          0.89867520	          0.34063752	         33.95538025	         -7.63890924	        -17.50750504	       -115.71843695	        -13.40691857	        -32.46077461	        -10.73943160	         27.31554382	          4.93937442	          1.52356507	        -48.52589240	         17.86111387	        -10.04970776	          7.85675633	        -29.70323099	         -5.93075343	         -4.29661735	        -41.92287803	        -10.21977817	        -23.16747765	         59.45215819	         74.01462590	        -26.56388890	         29.16969469	          2.76014341	        -13.34364752	         -5.55959122	         71.28376405	         66.05227104	          3.85678844	         20.19978513	
          0.65936000	        -17.18345489	          1.60501670	         12.25463992	          0.33084809	          0.89867520	          0.34063752	         33.95538025	         -7.63890924	        -17.50750504	       -115.71843695	        -13.40691857	        -32.46077461	        -10.73943160	         27.31554382	          4.93937442	          1.52356507	        -48.52589240	         17.86111387	        -10.04970776	          7.85675633	        -29.70323099	         -5.93075343	         -4.29661735	        -41.92287803	        -10.21977817	        -23.16747765	         59.45215819	         74.01462590	        -26.56388890	         29.16969469	          2.76014341	        -13.34364752	         -5.55959122	         71.28376405	         66.05227104	          3.85678844	         20.19978513	
          0.66206409	        -17.22645305	          1.18344383	         12.72894533	          0.34523425	          0.89821241	          0.34004740	         35.82854951	         -7.61039813	        -17.61206400	       -116.97671002	        -12.35134733	        -32.54227463	        -10.65840801	         25.92559084	          4.62599735	          2.05040801	        -47.66642069	         17.78175006	        -10.15684590	          8.17165656	        -29.49161548	         -5.12650884	         -4.39489997	        -43.86471439	         -9.79036040	        -23.97950430	         58.10544260	         74.58703355	        -26.40375787	         29.65416053	          4.89415640	        -13.37935643	         -4.40167360	         72.62410169	         65.63780693	          3.75384209	         20.08711032	
          0.67060791	        -17.36230967	         -0.14855433	         14.22755681	          0.39068866	          0.89675021	          0.33818285	         41.74699973	         -7.52031465	        -17.94242760	       -120.95233928	         -9.01617313	        -32.79978139	        -10.40240657	         21.53390682	          3.63585372	          3.71501662	        -44.95084093	         17.53099284	        -10.49535867	          9.16661271	        -28.82299683	         -2.58542420	         -4.70543291	        -50.00012463	         -8.43357553	        -26.54517704	         53.85037107	         76.39560806	        -25.89780916	         31.18487485	         11.63676634	        -13.49218200	         -0.74312659	         76.85902151	         64.32826955	          3.42857363	         19.73110394	
          0.67680000	        -17.59446612	         -1.10757547	         15.25360008	          0.42332610	          0.89495839	          0.33670667	         46.16472661	         -7.75140205	        -17.93543357	       -122.59381682	         -6.86539456	        -32.58393270	         -9.89529561	         18.84280063	          2.63850297	          5.04287198	        -42.93847419	         16.94025122	        -10.85938102	         10.12489989	        -27.86088072	         -0.69420561	         -5.02870229	        -53.76520410	         -7.29806335	        -27.99925909	         52.15730911	         77.63414171	        -25.32158722	         32.17715147	         16.09194565	        -13.23095609	          1.79284502	         80.87829989	         62.99659654	          3.13584755	         19.54912338	
          0.67680000	        -17.59446612	         -1.10757547	         15.25360008	          0.42332610	          0.89495839	          0.33670667	         46.16472661	         -7.75140205	        -17.93543357	       -122.59381682	         -6.86539456	        -32.58393270	         -9.89529561	         18.84280063	          2.63850297	          5.04287198	        -42.93847419	         16.94025122	        -10.85938102	         10.12489989	        -27.86088072	         -0.69420561	         -5.02870229	        -53.76520410	         -7.29806335	        -27.99925909	         52.15730911	         77.63414171	        -25.32158722	         32.17715147	         16.09194565	        -13.23095609	          1.79284502	         80.87829989	         62.99659654	          3.13584755	         19.54912338	
          0.67950409	        -17.71278166	         -1.52557799	         15.69406622	          0.43754022	          0.89408318	          0.33604620	         48.11020799	         -7.88985436	        -17.90116942	       -123.15362382	         -5.95988445	        -32.43869737	         -9.63311196	         17.72987281	          2.16752858	          5.63812771	        -42.05406613	         16.63047271	        -11.03338169	         10.57342598	        -27.38024308	          0.13797028	         -5.18231296	        -55.32310047	         -6.78290942	        -28.58291628	         51.59409190	         78.16586325	        -25.04341239	         32.59564838	         17.98287636	        -13.07343769	          2.88567205	         82.75384563	         62.36659816	          3.00079609	         19.47928205	
          0.68804791	        -18.13845953	         -2.83795068	         17.03305908	          0.48240000	          0.89110268	          0.33393653	         54.25709626	         -8.42368158	        -17.69453813	       -124.38606193	         -3.23206294	        -31.81977505	         -8.68892903	         14.42099495	          0.58035889	          7.53435915	        -39.25584504	         15.43255376	        -11.64314798	         12.01149294	        -25.68663757	          2.76880171	         -5.68158328	        -59.95170510	         -5.10331427	        -30.26924862	         50.38760449	         79.77334521	        -24.08384232	         33.85801496	         23.74273049	        -12.45008693	          6.28027267	         89.02732547	         60.23119399	          2.54443044	         19.29144762	
          0.69424000	        -18.56616156	         -3.76990288	         17.88233612	          0.51479461	          0.88844787	          0.33235496	         58.71193301	         -9.03212229	        -17.31864209	       -124.04632758	         -1.56134554	        -31.00330797	         -7.73845208	         12.49996348	         -0.79771285	          8.94419821	        -37.21899191	         14.06058174	        -12.22299409	         13.10178843	        -24.05693392	          4.67892079	         -6.07543474	        -62.63105721	         -3.76668130	        -31.12867969	         50.83057372	         80.77159711	        -23.20299228	         34.63517689	         27.42355342	        -11.70944791	          8.60649853	         94.37290293	         58.35054171	          2.14550157	         19.23080039	
          0.69424000	        -18.56616156	         -3.76990288	         17.88233612	          0.51479461	          0.88844787	          0.33235496	         58.71193301	         -9.03212229	        -17.31864209	       -124.04632758	         -1.56134554	        -31.00330797	         -7.73845208	         12.49996348	         -0.79771285	          8.94419821	        -37.21899191	         14.06058174	        -12.22299409	         13.10178843	        -24.05693392	          4.67892079	         -6.07543474	        -62.63105721	         -3.76668130	        -31.12867969	         50.83057372	         80.77159711	        -23.20299228	         34.63517689	         27.42355342	        -11.70944791	          8.60649853	         94.37290293	         58.35054171	          2.14550157	         19.23080039	
          0.69694409	        -18.75293933	         -4.17688704	         18.25321599	          0.52894136	          0.88728851	          0.33166429	         60.65736327	         -9.29782877	        -17.15448804	       -123.89796536	         -0.83174211	        -30.64675624	         -7.32337815	         11.66104772	         -1.39951772	          9.55987589	        -36.32949676	         13.46144062	        -12.47621328	         13.57792121	        -23.34524122	          5.51307110	         -6.24742994	        -63.80113211	         -3.18297277	        -31.50399383	         51.02401869	         81.20753440	        -22.81832446	         34.97456404	         29.03097131	        -11.38601034	          9.62236296	         96.70732027	         57.52925958	          1.97128906	         19.20431570	
